<?xml version="1.0" encoding="UTF-8"?>
<!DOCTYPE svg PUBLIC "-//W3C//DTD SVG 1.1//EN" "http://www.w3.org/Graphics/SVG/1.1/DTD/svg11.dtd">
<!-- Creator: CorelDRAW -->
<svg xmlns="http://www.w3.org/2000/svg" xml:space="preserve" width="50mm" height="50mm" version="1.1" shape-rendering="geometricPrecision" text-rendering="geometricPrecision" image-rendering="optimizeQuality" fill-rule="evenodd" clip-rule="evenodd"
viewBox="0 0 5000 5000"
 xmlns:xlink="http://www.w3.org/1999/xlink"
 xmlns:xodm="http://www.corel.com/coreldraw/odm/2003">
 <g id="Layer_x0020_1">
  <metadata id="CorelCorpID_0Corel-Layer"/>
  <path fill="#FBFBFC" fill-rule="nonzero" d="M594.19 1518.54c-62.12,0 -113.39,25.33 -139.92,70.57 -21.71,-44.02 -68.15,-70.57 -131.47,-70.57 -60.92,0 -107.35,24.73 -132.07,66.35l0 -61.52 -57.9 0 0 422.16 60.31 0 0 -252.09c0,-85.03 48.24,-121.22 115.19,-121.22 61.52,0 102.52,35.58 102.52,112.78l0 260.53 59.7 0 0 -252.09c0,-85.03 47.05,-121.22 113.39,-121.22 60.91,0 105.53,35.58 105.53,112.78l0 260.53 59.71 0 0 -262.34c0,-108.55 -59.1,-164.65 -154.99,-164.65zm510.21 107.36l0 148.36c0,68.74 -38.6,106.14 -98.9,106.14 -54.88,0 -86.25,-31.37 -86.25,-93.48l0 -161.02 -57.88 0 0 167.66c0,94.07 54.88,138.7 137.5,138.7 43.41,0 82.01,-16.89 105.53,-47.64l0 23.52c0,72.37 -31.36,106.74 -101.92,106.74 -44.63,0 -86.23,-15.67 -113.98,-41l-28.35 44.63c33.77,31.35 89.87,47.63 145.35,47.63 103.12,0 156.8,-51.26 156.8,-164.04l0 -276.2 -57.9 0z"/>
  <path fill="#FBFBFC" fill-rule="nonzero" d="M681.33 2050.97c-151.91,0 -284.34,58.42 -368.08,173.34l0 -163.6 -179.19 0 0 1410.02 186.97 0 0 -533.63c85.7,111.02 214.23,167.49 360.3,167.49 301.86,0 521.94,-210.34 521.94,-527.78 0,-315.5 -220.08,-525.84 -521.94,-525.84zm-15.59 890.03c-196.69,0 -346.66,-144.13 -346.66,-364.19 0,-218.12 149.97,-362.24 346.66,-362.24 198.66,0 348.62,144.12 348.62,362.24 0,220.06 -149.96,364.19 -348.62,364.19zm2121.42 -706.96l0 -173.33 -179.19 0 0 1032.19 186.97 0 0 -514.14c0,-225.92 124.65,-348.62 325.24,-348.62 13.63,0 27.27,0 42.84,1.95l0 -181.12c-181.12,0 -309.66,62.32 -375.86,183.07zm934.47 664.11c-38.95,31.17 -91.53,48.69 -146.07,48.69 -105.16,0 -161.63,-62.33 -161.63,-173.34l0 -558.93 296.01 0 0 -153.86 -296.01 0 0 -225.91 -186.97 0 0 946.5c0,208.39 118.79,323.29 327.18,323.29 83.75,0 169.44,-23.37 225.91,-72.06l-58.42 -134.38zm535.24 206.44c309.66,0 535.58,-220.08 535.58,-527.78 0,-307.71 -225.92,-525.84 -535.58,-525.84 -309.66,0 -537.52,218.13 -537.52,525.84 0,307.7 227.86,527.78 537.52,527.78zm0 -163.59c-198.65,0 -348.6,-144.13 -348.6,-364.19 0,-220.07 149.95,-362.24 348.6,-362.24 198.64,0 346.66,142.17 346.66,362.24 0,220.06 -148.02,364.19 -346.66,364.19zm-2454.54 165.98c-117.31,0 -219.77,-22.28 -307.37,-66.86 -87.6,-44.59 -155.65,-107.55 -204.14,-188.89 -48.49,-81.34 -72.74,-175.2 -72.74,-281.57 0,-139.2 31.29,-264.35 93.86,-375.4 62.58,-111.06 149.39,-198.27 260.45,-261.62 111.05,-63.35 236.2,-95.03 375.4,-95.03 117.33,0 219.79,21.9 307.39,65.69 87.59,43.81 155.24,105.98 202.95,186.55 47.7,80.55 71.57,174.8 71.57,282.73 0,139.22 -31.29,264.74 -93.86,376.59 -62.58,111.84 -148.99,199.44 -259.27,262.79 -110.28,63.35 -235.02,95.02 -374.24,95.02zm14.07 -197.09c92.29,0 175.59,-22.29 249.89,-66.87 74.31,-44.58 132.17,-106.76 173.64,-186.53 41.44,-79.78 62.17,-170.51 62.17,-272.18 0,-111.06 -32.06,-197.1 -96.2,-258.09 -64.14,-61.01 -155.64,-91.51 -274.52,-91.51 -92.29,0 -175.2,22.28 -248.72,66.87 -73.51,44.58 -131.39,106.75 -173.63,186.53 -42.23,79.77 -63.35,170.49 -63.35,272.18 0,109.49 32.46,195.13 97.38,256.91 64.91,61.8 156.03,92.69 273.34,92.69z"/>
  <path fill="#FBFBFC" fill-rule="nonzero" d="M4208.92 3183.18l0 157.41c0,62.09 -21.62,92.02 -71.5,92.02 -50.44,0 -73.72,-29.93 -73.72,-92.02l0 -157.41 -53.22 0 0 157.41c0,62.09 -23.28,92.02 -73.72,92.02 -50.44,0 -72.05,-29.93 -72.05,-92.02l0 -157.41 -53.22 0 0 162.41c0,85.91 42.68,134.69 125.27,134.69 48.23,0 80.93,-16.63 100.33,-52.66 19.95,37.7 54.32,52.66 99.78,52.66 82.03,0 125.26,-48.78 125.26,-134.69l0 -162.41 -53.21 0zm239.36 250.54c-49.33,0 -85.91,-23.28 -100.87,-63.74l233.36 -45.46c-1.67,-87.58 -64.3,-144.12 -144.68,-144.12 -85.36,0 -147.44,62.65 -147.44,149.67 0,87.57 63.19,150.21 157.97,150.21 48.78,0 89.25,-16.63 115.3,-47.67l-28.83 -34.37c-21.61,23.84 -50.43,35.48 -84.81,35.48zm-12.19 -208.42c47.67,0 82.6,29.94 92.02,72.06l-187.91 35.48 0 -5.55c0,-61.52 39.91,-101.99 95.89,-101.99zm330.28 -44.9c-41.57,0 -78.16,15.52 -102.55,47.12l0 -161.85 -53.21 0 0 411.29 50.99 0 0 -46.57c23.84,33.26 61.53,49.89 104.77,49.89 85.91,0 148.55,-60.41 148.55,-150.21 0,-89.8 -62.64,-149.67 -148.55,-149.67zm-4.44 253.32c-55.98,0 -98.66,-41.02 -98.66,-103.65 0,-62.64 42.68,-103.1 98.66,-103.1 56.53,0 99.22,40.46 99.22,103.1 0,62.63 -42.69,103.65 -99.22,103.65z"/>
 </g>
</svg>
